<?xml version="1.0" encoding="UTF-8"?>
<svg width="512px" height="512px" viewBox="0 0 512 512" version="1.1" xmlns="http://www.w3.org/2000/svg" xmlns:xlink="http://www.w3.org/1999/xlink">
    <title>画板</title>
    <g id="画板" stroke="none" stroke-width="1" fill="none" fill-rule="evenodd">
        <circle id="椭圆形" fill="#815FFA" cx="256" cy="256" r="256"></circle>
        <g id="list-check-2" transform="translate(45.000000, 39.000000)" fill-rule="nonzero">
            <rect id="矩形" fill="#000000" opacity="0" x="0" y="0" width="450" height="450"></rect>
            <path d="M206.25,75.0000001 L393.75,75.0000001 L393.75,112.5 L206.25,112.5 L206.25,75.0000001 Z M206.25,150 L318.75,150 L318.75,187.5 L206.25,187.5 L206.25,150 Z M206.25,262.5 L393.75,262.5 L393.75,300 L206.25,300 L206.25,262.5 Z M206.25,337.5 L318.75,337.5 L318.75,375 L206.25,375 L206.25,337.5 Z M56.25,75.0000001 L168.75,75.0000001 L168.75,187.5 L56.25,187.5 L56.25,75.0000001 Z M93.7499999,112.5 L93.7499999,150 L131.25,150 L131.25,112.5 L93.7499999,112.5 L93.7499999,112.5 Z M56.25,262.5 L168.75,262.5 L168.75,375 L56.25,375 L56.25,262.5 Z M93.7499999,300 L93.7499999,337.5 L131.25,337.5 L131.25,300 L93.7499999,300 L93.7499999,300 Z" id="形状" fill="#FFFFFF"></path>
        </g>
    </g>
</svg>